<?xml version="1.0" encoding="utf-8"?>
<!-- Generator: Adobe Illustrator 23.0.1, SVG Export Plug-In . SVG Version: 6.00 Build 0)  -->
<svg version="1.1" id="Layer_1" xmlns="http://www.w3.org/2000/svg" xmlns:xlink="http://www.w3.org/1999/xlink" x="0px" y="0px"
	 viewBox="0 0 541 541" style="enable-background:new 0 0 541 541;" xml:space="preserve">
<style type="text/css">
	.st0{display:none;fill:#A26BAD;}
	.st1{fill:#FFFFFF;}
	.st2{fill:#FEDE5B;}
	.st3{fill:#59B1E3;}
	.st4{fill:#194FA3;}
	.st5{fill:#5AB2E4;}
	.st6{fill:#1F53A5;}
	.st7{fill:#2155A6;}
	.st8{fill:#4176BB;}
	.st9{fill:#487DBE;}
	.st10{fill:#60B5E5;}
	.st11{fill:#5AB0E0;}
	.st12{fill:#1A51A4;}
	.st13{fill:#467ABE;}
</style>
<rect x="11.9" y="113.3" class="st0" width="511" height="323"/>
<circle class="st1" cx="270.5" cy="270.5" r="270.5"/>
<g>
	<path class="st2" d="M102,260c-0.1-14.6-0.1-29.1,3.9-43.5c11.1-40.3,48.8-74.2,90.2-80.1c33.6-4.8,64.4,1.9,90.8,23.7
		c20.9,17.3,34.6,39.3,39.6,66.3c-3.4,1.5-6.9,0.8-10.3-0.2c-5.9-1.6-11.5-0.9-17,1.5c-9.7,4.1-18.5,9.9-27.1,15.9
		c-2.2-0.7-4.4-1.4-6.6-2.1c-14.2-4.4-28.7-6.6-43.6-4.6c-2.4,0.1-4.4-1-6.3-2.4c-11.2-7.8-23.2-9.6-35.9-4
		c-14.6,6.4-25.2,17.6-34.8,29.8C130.6,260.2,116.3,260.1,102,260z"/>
	<path class="st3" d="M272.1,243.7c8.6-6,17.3-11.8,27.1-15.9c5.6-2.4,11.1-3.1,17-1.5c3.4,0.9,6.8,1.7,10.3,0.2
		c6-0.4,10.4-4.1,14.8-7.6c11.9-9.5,17.1-9.7,29.9-1.4c2.6,1.7,5.2,3.6,7.9,5.3c10.5,7.1,18.7,6.3,27.8-2.6
		c9.2-9.1,15.4-20.5,23.2-30.6c3.6-4.6,7.3-9.1,11.8-12.8c14.4-11.9,31.5-8.6,44.3,3.1c11.8,10.8,19,24.7,24.9,39.3
		c4.6,11.4,8,23.3,10.7,35.3c0.5,2.3,1.8,4.8-0.5,6.9c-3.3-1.6-6.7-1-10-0.8c-69,0-137.9-0.1-206.9-0.1c-0.9,0-2-0.3-2.8,1.4
		c14,12.2,26,26.8,40.9,38.3c-0.4,0.7-0.7,1.4-1,2.1l-0.4,0.1l-0.4,0c-0.8-0.1-1.6,0-2.1,0.7c-0.6,0.1-1.2,0.2-1.8,0.3
		c-0.4,0.2-0.8,0.4-1.2,0.6c-0.7,0.1-1.4,0.2-2.1,0.3c-2-2-3.4-0.1-4.9,0.8c-3.7,0.4-7.4,0.5-11.2,0c-1.6-0.5-3-2.4-4.9-0.8
		c-1-0.1-2.1-0.2-3.1-0.3c-0.7-0.2-1.3-0.4-2-0.7c-1.3-0.4-2.6-0.8-4-1.2c-0.4-0.2-0.9-0.5-1.3-0.7c-0.6-0.1-1.1-0.2-1.7-0.3
		c-0.4-0.2-0.8-0.5-1.2-0.7l-0.4,0l-0.4-0.1c-0.5-0.8-1.3-1-2.1-0.9c-3.3-0.8-6.1-2.6-8.9-4.4c-0.3-0.2-0.6-0.5-0.9-0.7
		c-0.9-0.1-1.6-0.4-2.1-1.2c-0.3-0.3-0.7-0.5-1-0.8c-2.6-0.5-4-2.8-6-4.2c-0.3-0.3-0.7-0.6-1-0.8c-1-0.8-2-1.5-3-2.3
		c-0.3-0.3-0.5-0.5-0.8-0.8l-0.1-0.1c-0.4-0.3-0.7-0.6-1.1-0.9c-8.2-6.3-15.9-13.2-23-20.8c-0.6-0.7-1.3-1.4-1.9-2.1
		c17.2,0,34.3,0,51.5,0c0.1-0.5,0.1-1,0.2-1.5C290.2,252.5,281.2,248,272.1,243.7z"/>
	<path class="st4" d="M342.2,300.3c-14.9-11.5-26.9-26.1-40.9-38.3c0.8-1.8,1.9-1.4,2.8-1.4c69,0,137.9,0.1,206.9,0.1
		c-0.1,2.4-2.3,2-3.6,2.6c-10.4,4.9-19.2,11.4-24.3,22.1l0,0c-0.3,0.3-0.6,0.6-1,0.9c-0.7,0.6-1.4,1.2-2.1,1.9
		c-7.6,4.7-15.3,9.4-22.9,14.1c-10,6.2-20.6,10.8-32,13.5c-12.6,3-25.3,3.5-38.1,1.9c-0.2-0.1-0.5-0.2-0.6-0.3
		c-10.5-17.4-22.4-22.3-41.1-16C344,301.6,343.1,300.8,342.2,300.3z"/>
	<path class="st5" d="M246.2,260.7c0.6,0.7,1.3,1.4,1.9,2.1c-3.1-1.3-5,1.1-7.1,2.5c-18.3,12.2-36.9,23.8-57.4,32.1
		c-19.4,7.8-39.3,12.5-60.3,11.1c-6.6-0.4-13.2-1.5-19.8-2.5c-1.7-0.3-3.2-0.4-4.8,0.4c-18.8,9.8-35.6,4.8-50.8-7.9
		c-11.9-10-21.9-21.9-28.8-36c0.4,0,0.8,0,1.1,0c2.9,2.1,5.8,4.2,8.8,6.3c0.3,1.2,1,1.8,2.3,1.7c1.4,1,2.7,2,4.1,2.9
		c0.4,1.6,1.4,2.2,3,2c0.9,0.5,1.8,1,2.6,1.5c0.6,2,2.5,2.6,4,3.6c14.8,9.8,31,16.6,47.5,22.5c3.1,1.1,7,3,10.1,1.1
		c7.3-4.6,14.1-9.8,18.8-17.3c1.3-0.8,2.5-1.5,3.8-2.3c15.6-3.3,27.9-12,39.1-22.9c1-0.2,2-0.4,2.9-0.5c2-0.1,4-0.3,5.9-0.3
		c23.7-0.1,47.4-0.1,71.2-0.1C244.9,260.6,245.5,260.6,246.2,260.7z"/>
	<path class="st6" d="M59.9,405.3c5.5-14.1,10.9-27.9,16.3-41.6c5.2-13.2,10.7-26.2,15.4-39.5c1.7-4.8,4.7-4.2,8.1-4.2
		c3.3,0,6.1-0.4,7.8,4c9.6,25.7,19.6,51.3,29.7,76.8c1.7,4.4,0.7,5.1-3.7,5c-10.3-0.3-10.2-0.1-13.2-10.3c-2.5-8.6-0.3-7.4-9.8-7.4
		c-8.5-0.1-17,0.1-25.5-0.1c-2.9,0-4.9,0.5-5.2,3.8c-0.1,0.5-0.3,1-0.4,1.4C75.3,406.6,75.3,406.6,59.9,405.3z M99.8,341.2
		c-5,12.2-9.4,23.1-13.8,33.9c-0.7,1.6,0.2,2.1,1.6,2.1c7.8,0,15.6,0,23.4,0c1.6,0,2.7-0.6,2-2.4
		C108.9,364.1,104.6,353.4,99.8,341.2z"/>
	<path class="st3" d="M386.9,317.7c12.8,1.6,25.5,1.1,38.1-1.9c11.4-2.7,22.1-7.3,32-13.5c7.6-4.7,15.3-9.4,22.9-14.1
		c-6.3,11.6-12.6,23.3-18.9,34.9c-4.2,7.8-9.5,14.7-15.8,21c-12,12-35.4,13.2-46.3-5.3C394.9,331.8,390.2,325.1,386.9,317.7z"/>
	<path class="st6" d="M396.2,376.2c0,8.2-0.3,16.3,0.1,24.5c0.2,4.3-1.4,5.9-5.3,5c-2.5-0.6-6.7,2.5-7.2-3.1
		c-0.1-1.3-1.6-0.1-2.4,0.3c-7.2,3.5-14.9,3.8-22.5,2.8c-12-1.5-21.6-12.8-22.6-25.7c-2-25.3,20.1-41.3,43.7-31.4
		c1.9,0.8,2.8,2.1,4.6-1.3c1.6-3.1,6.7-1.3,10.2-1c2.6,0.2,1.4,3,1.5,4.6C396.3,359.3,396.2,367.7,396.2,376.2z M383.9,376
		c0.1-10.6-7.6-19.1-17.5-19.3c-9.9-0.1-17.9,8.3-18,18.9c-0.1,10.7,7.5,19,17.6,19.1C376.2,394.8,383.8,386.9,383.9,376z"/>
	<path class="st6" d="M213.7,380.4c-6.5,0-13,0.1-19.5,0c-3.1-0.1-3.2,1.1-2.2,3.5c3.8,9.3,15.7,13.9,26.2,10
		c4.2-1.5,9.8,0.8,11.7,4.7c0.8,1.7-0.4,2-1.3,2.6c-10.6,7.5-30.3,5.8-40.1-3.4c-10.4-9.9-12.3-26.6-4.5-39
		c7.5-11.8,22.9-16.6,36.6-11.6c9,3.3,12.9,10.6,14.8,19.2c3.2,14,3.1,14-10.8,14C221,380.4,217.4,380.4,213.7,380.4z M208.2,370.5
		c4.5,0,9-0.2,13.5,0.1c3.3,0.2,3.5-1.1,2.6-3.8c-2.4-7.2-7.9-10.9-16.2-10.5c-7.9,0.3-14.6,5.1-16.4,11.6c-0.6,2-0.1,2.7,2,2.7
		C198.6,370.4,203.4,370.5,208.2,370.5z"/>
	<path class="st7" d="M253.2,374.2c0-3.7-0.2-7.3,0.1-11c0.2-3.4-0.8-4.9-4.4-4.6c-1.8,0.1-4.6,1.2-5.2-1.3
		c-0.6-2.7-0.6-5.8,0.1-8.4c0.6-2,3.3-1.1,4.9-0.9c3.5,0.3,4.8-1,4.5-4.5c-0.3-4.3,0.1-8.7-0.1-13c-0.1-3,0.7-4.1,3.9-4
		c10.7,0.3,8.5-1.3,8.8,8.6c0.1,2.7,0.3,5.4,0,8c-0.5,4.1,1.4,5.4,5.2,4.9c0.6-0.1,1.3,0,2,0c5.9,0,8,3.2,6.2,9.1
		c-0.7,2.1-2.2,1.6-3.6,1.7c-9.7,0.5-9.7,0.5-9.7,10.3c0,5-0.1,10,0.1,15c0.3,6.9,2.8,9,9.6,9.1c1.9,0,4.8-1.1,5.4,1.1
		c1,3.4,0.7,7.2,0,10.8c-0.1,0.3-1.1,0.6-1.7,0.7c-16.3,1.9-25.1-6.8-25.9-20.4C253,381.5,253.2,377.9,253.2,374.2
		C253.2,374.2,253.2,374.2,253.2,374.2z"/>
	<path class="st7" d="M297.1,374.4c0-3.8-0.2-7.7,0-11.5c0.2-3.4-1.2-4.7-4.4-4.1c-4.5,0.8-5.6-1.1-5.6-5.5c0.1-3.9,0.8-6,5.2-5.3
		c3.8,0.6,4.9-1.2,4.7-4.9c-0.3-4.1,0.1-8.3-0.1-12.5c-0.1-2.9,0.6-4.2,3.9-4.1c11,0.3,8.6-1.1,8.9,8.5c0,0.5,0,1,0,1.5
		c0.1,3.5-1,7.7,0.6,10.3c1.8,3,6.4,0.9,9.8,1.2c2,0.2,2.8,0.6,3,2.9c0.6,7.9,0.7,8.2-7.4,7.8c-4.7-0.2-6.5,1-6.1,5.9
		c0.5,6.3,0,12.6,0.1,19c0.2,7.3,2.5,9.4,9.7,9.5c1.9,0,4.9-1.1,5.3,1c0.7,3.5,0.2,7.2,0.1,10.9c0,0.3-1.1,0.6-1.7,0.7
		c-14.5,1.5-24.5-4.3-26-19.8c-0.4-3.8,0-7.6,0-11.5C297.2,374.4,297.1,374.4,297.1,374.4z"/>
	<path class="st7" d="M158.3,354.5c0,9.8-0.1,19.6,0,29.5c0.1,7.5,1.6,9.1,9.1,9c3.6-0.1,4.8,1.2,4.4,4.6c-0.2,1.6-0.1,3.3,0,5
		c0.2,2.3-0.7,3.1-3.1,3.2c-14.5,0.9-22.5-5.6-22.9-20.5c-0.6-20.6-0.2-41.3-0.3-61.9c0-2.6,1-3.3,3.5-3.5c9.2-0.4,9.2-0.5,9.2,8.6
		C158.3,337.2,158.3,345.8,158.3,354.5z"/>
	<path class="st8" d="M164.2,261.5c-11.2,10.8-23.5,19.5-39.1,22.9c4.7-8.3,12.5-14.3,17.6-22.7c-1.1-0.1-1.7-0.2-2.3-0.2
		c-38.6,0-77.3,0-115.9,0c-1.4,0-3.1-0.5-4.2,1c-0.4,0-0.8,0-1.1,0c-0.7-1-0.9-1.9,0.6-2.1c1.5-0.2,3-0.1,4.5-0.1
		c25.9-0.1,51.9-0.2,77.8-0.2c14.3,0.1,28.6,0.2,42.9,0.4c1.3,1.5,3,1,4.6,1.1C154.4,261.5,159.3,261.5,164.2,261.5z"/>
	<path class="st9" d="M345.1,301.4c18.7-6.3,30.6-1.4,41.1,16c-14.8-2-28.3-7.7-41-15.3C345.2,301.8,345.2,301.6,345.1,301.4z"/>
	<path class="st8" d="M483.1,285.4c5.1-10.7,13.9-17.3,24.3-22.1c1.3-0.6,3.6-0.2,3.6-2.6c3.4-0.2,6.8-0.8,10,0.8
		C508.7,269.8,496.1,278,483.1,285.4z"/>
	<path class="st10" d="M328.2,305.2c1.5-0.9,2.9-2.7,4.9-0.8C331.7,305.8,329.9,305.3,328.2,305.2z"/>
	<path class="st10" d="M312.2,304.5c1.9-1.6,3.3,0.3,4.9,0.8C315.4,305.4,313.6,305.8,312.2,304.5z"/>
	<path class="st10" d="M345.1,301.4c0,0.2,0.1,0.5,0.2,0.7c-1.4,0.1-2.8,0.2-4.1,0.4c0.4-0.7,0.7-1.4,1-2.1
		C343.1,300.8,344,301.6,345.1,301.4z"/>
	<path class="st10" d="M296,299.5c0.9,0,1.6,0.1,2.1,0.9C297.4,300.2,296.7,299.8,296,299.5z"/>
	<path class="st10" d="M338.2,303.3c0.5-0.8,1.3-0.8,2.1-0.7C339.8,303.3,339.1,303.4,338.2,303.3z"/>
	<path class="st10" d="M307.1,303.5c0.7,0.2,1.3,0.4,2,0.7C308.3,304.4,307.6,304.2,307.1,303.5z"/>
	<path class="st10" d="M298.9,300.6c0.4,0.2,0.8,0.5,1.2,0.7C299.7,301,299.3,300.8,298.9,300.6z"/>
	<path class="st10" d="M301.8,301.6c0.4,0.2,0.9,0.5,1.3,0.7C302.7,302.1,302.2,301.8,301.8,301.6z"/>
	<path class="st10" d="M283.1,292.5c0.3,0.3,0.7,0.5,1,0.8C283.8,293,283.5,292.7,283.1,292.5z"/>
	<path class="st10" d="M276.1,287.5c0.3,0.3,0.7,0.5,1,0.8C276.8,288,276.5,287.8,276.1,287.5z"/>
	<path class="st8" d="M482.1,286.3c0.3-0.3,0.6-0.6,1-0.9C482.7,285.7,482.4,286,482.1,286.3z"/>
	<path class="st10" d="M272.3,284.5c0.3,0.3,0.5,0.5,0.8,0.8C272.8,285,272.6,284.7,272.3,284.5z"/>
	<path class="st10" d="M271.1,283.5c0.4,0.3,0.7,0.6,1.1,0.9C271.8,284.1,271.5,283.8,271.1,283.5z"/>
	<path class="st10" d="M286.2,294.5c0.3,0.2,0.6,0.5,0.9,0.7C286.8,294.9,286.5,294.7,286.2,294.5z"/>
	<path class="st10" d="M335.2,304.1c0.4-0.2,0.8-0.4,1.2-0.6C336,303.8,335.6,304,335.2,304.1z"/>
	<path class="st9" d="M246.2,260.7c-0.6,0-1.3-0.1-1.9-0.2c-0.2-2-1.8-2.9-3.2-4.1c-7-6.2-13.9-12.5-20.9-18.7
		c0.6-0.2,1.2-0.5,1.8-0.7c14.9-2,29.4,0.1,43.6,4.6c2.2,0.7,4.4,1.4,6.6,2.1c9.1,4.4,18.1,8.8,25.7,15.5c-0.1,0.5-0.1,1-0.2,1.5
		C280.5,260.7,263.3,260.7,246.2,260.7z"/>
	<path class="st11" d="M221.9,237c-0.6,0.2-1.2,0.5-1.8,0.7c-1.8,0-3.7-0.3-5.4,0.1c-16.6,3.3-32,9.4-45.4,20.1
		c-1,0.8-2.1,1.7-2.2,3.1c-1,0.2-2,0.4-2.9,0.5c-4.9,0-9.8,0-14.7-0.1c-1.6,0-3.3,0.4-4.6-1.1c9.7-12.2,20.3-23.4,34.8-29.8
		c12.6-5.6,24.7-3.8,35.9,4C217.6,235.9,219.5,237.1,221.9,237z"/>
	<path class="st4" d="M20.2,262.4c1.1-1.5,2.7-1,4.2-1c38.6,0,77.3,0,115.9,0c0.6,0,1.3,0.1,2.3,0.2c-5.1,8.4-12.9,14.4-17.6,22.7
		c-1.3,0.8-2.5,1.5-3.8,2.3c-1.3,0.1-2.7,0.1-3.9,0.3c-23.5,5-46.3,3.6-68.2-7.1c-2.6-1.3-5-3.3-8.3-3c-0.9-0.5-1.8-1-2.6-1.5
		c-0.3-1.7-1.6-1.9-3-1.9c-1.4-1-2.7-2-4.1-2.9c-0.2-1.3-0.9-1.9-2.3-1.7C26.1,266.6,23.1,264.5,20.2,262.4z"/>
	<path class="st12" d="M167.1,261c0.1-1.5,1.2-2.3,2.2-3.1c13.4-10.7,28.7-16.9,45.4-20.1c1.8-0.3,3.6-0.1,5.4-0.1
		c6.9,6.3,13.9,12.6,20.9,18.7c1.4,1.2,3,2.1,3.2,4.1c-23.7,0.1-47.4,0.1-71.2,0.1C171.1,260.7,169.1,260.9,167.1,261z"/>
	<path class="st13" d="M40.9,276.8c3.2-0.3,5.7,1.8,8.3,3c21.9,10.8,44.7,12.1,68.2,7.1c1.3-0.3,2.6-0.2,3.9-0.3
		c-4.7,7.5-11.5,12.8-18.8,17.3c-3.1,1.9-7,0-10.1-1.1c-16.5-6-32.7-12.8-47.5-22.5C43.5,279.4,41.6,278.7,40.9,276.8z"/>
	<path class="st13" d="M35.3,273.3c1.4,0,2.7,0.2,3,2C36.7,275.5,35.7,274.9,35.3,273.3z"/>
	<path class="st13" d="M29,268.7c1.4-0.3,2.1,0.3,2.3,1.7C30,270.5,29.2,270,29,268.7z"/>
</g>
</svg>
