<svg width="183" height="95" xmlns="http://www.w3.org/2000/svg"><g fill="none" fill-rule="evenodd"><path d="M83.194 76.58c-.783 0-1.275-.18-1.538-.326l.277-.694c.34.126.693.243 1.247.243.596 0 .978-.192.978-.623 0-.964-2.35-.707-2.35-2.356 0-.886.804-1.26 1.636-1.26.762 0 1.136.165 1.407.284l-.278.671a2.97 2.97 0 0 0-1.102-.194c-.506 0-.762.153-.762.492 0 .826 2.397.755 2.397 2.32 0 1.026-.927 1.442-1.912 1.442zM89.54 76.503l-.527-1.601H87.22l-.603 1.6h-.936l1.9-4.898h1.268l1.662 4.899h-.97zm-1.122-3.463l-.243-.868-.284.868-.416 1.17h1.31l-.367-1.17zM95.962 76.503v-2.584l.035-.88-1.365 3.464h-1.15l-1.199-3.513.062.887v2.626h-.936v-4.9h1.228l1.454 4.132 1.65-4.131h1.157v4.899zM98.378 76.503v-4.9h3.028v.736h-2.092v1.35h1.94v.708h-1.94v1.365h2.252v.74zM105.728 76.503l-2.1-3.734.035.616v3.118h-.935v-4.9h1.171l2.154 3.84-.04-.616v-3.223h.927v4.899zM113.48 76.503h-1.226l-.672-1.94-.243-.776-.27.762-.748 1.954h-1.255l-1.171-4.9h.915l.734 3.286.215 1.08.395-1.094.825-2.065-.416-1.206h.935l1.067 3.306.312 1.032.27-1.088.894-3.25h.887zM115.82 76.503v-4.9h3.028v.736h-2.092v1.35h1.94v.708h-1.94v1.365h2.252v.74zM124.314 76.587c-.686-.035-1.171-.39-1.67-.985l-.728-.873a4.07 4.07 0 0 1-.318.014h-.485v1.76h-.943v-4.9h1.788c1.046 0 1.767.494 1.767 1.56 0 .575-.278 1.067-.86 1.345l.603.693c.298.34.652.547 1.047.65l-.201.736zm-2.508-4.241h-.693v1.71h.526c.72 0 1.115-.276 1.115-.865 0-.595-.263-.845-.948-.845zM128.324 76.503l-1.968-2.515v2.515h-.935v-4.9h.935v2.239l1.857-2.238h1.192l-2.002 2.28 2.127 2.619zM130.387 76.501h.936v-4.89h-.936zM135.805 76.503l-2.1-3.734.035.616v3.118h-.935v-4.9h1.171l2.155 3.84-.042-.616v-3.223h.929v4.899zM140.806 76.572c-1.629 0-2.626-.901-2.626-2.486 0-1.684.936-2.536 2.646-2.536.77 0 1.171.15 1.449.263l-.257.699c-.353-.096-.602-.181-1.198-.181-.936 0-1.684.465-1.684 1.684 0 1.213.803 1.768 1.795 1.768.208 0 .367-.014.498-.03v-1.308h.936v1.87c-.498.182-.942.257-1.559.257M144.837 76.58c-.783 0-1.275-.18-1.538-.326l.277-.694c.34.126.693.243 1.247.243.596 0 .978-.192.978-.623 0-.964-2.35-.707-2.35-2.356 0-.886.804-1.26 1.636-1.26.762 0 1.136.165 1.407.284l-.278.671a2.97 2.97 0 0 0-1.102-.194c-.506 0-.762.153-.762.492 0 .826 2.397.755 2.397 2.32 0 1.026-.927 1.442-1.912 1.442M150.206 76.503h-1.268l-1.677-4.9h.984l1.143 3.529.215.74.243-.74 1.33-3.528h.935zM152.948 76.503v-4.9h3.028v.736h-2.093v1.35h1.94v.708h-1.94v1.365h2.252v.74zM161.442 76.587c-.685-.035-1.171-.39-1.67-.985l-.727-.873a4.096 4.096 0 0 1-.32.014h-.484v1.76h-.942v-4.9h1.787c1.047 0 1.768.494 1.768 1.56 0 .575-.278 1.067-.86 1.345l.603.693c.298.34.65.547 1.046.65l-.201.736zm-2.508-4.241h-.693v1.71h.527c.72 0 1.115-.276 1.115-.865 0-.595-.263-.845-.95-.845zM164.33 76.503h-1.782v-4.9h1.573c1.157 0 1.726.425 1.726 1.297 0 .589-.409.852-.562.95v.02c.208.07.915.326.915 1.172 0 .858-.485 1.46-1.87 1.46m-.375-4.184h-.465v1.338h.527c.713 0 .873-.278.873-.68 0-.464-.236-.658-.935-.658m.083 1.996h-.548v1.448h.7c.7 0 1.054-.16 1.054-.7 0-.561-.375-.748-1.206-.748M170.661 76.503l-.526-1.601h-1.795l-.603 1.6h-.936l1.9-4.898h1.267l1.663 4.899h-.97zm-1.122-3.463l-.243-.868-.284.868-.416 1.17h1.31l-.367-1.17zM175.53 76.503l-2.099-3.734.034.616v3.118h-.935v-4.9h1.171l2.155 3.84-.042-.616v-3.223h.93v4.899zM179.846 76.503h-1.621v-4.9h1.579c1.65 0 2.806.729 2.806 2.433 0 1.699-1.046 2.467-2.764 2.467m-.062-4.156h-.631v3.415h.769c1.185 0 1.753-.568 1.753-1.657 0-1.184-.658-1.758-1.891-1.758M85.031 84.2l-2.1-3.735.035.616V84.2h-.935V79.3h1.171l2.154 3.84-.042-.617V79.3h.93v4.9zM89.9 84.284c-1.642 0-2.495-.998-2.495-2.544 0-1.614 1.02-2.514 2.627-2.514 1.697 0 2.48 1.032 2.48 2.528 0 1.58-.936 2.53-2.612 2.53m.07-4.304c-1.124 0-1.615.756-1.615 1.753 0 .977.478 1.795 1.566 1.795 1.164 0 1.635-.768 1.635-1.78s-.513-1.768-1.587-1.768M95.843 84.284c-1.642 0-2.494-.998-2.494-2.544 0-1.614 1.018-2.514 2.626-2.514 1.697 0 2.481 1.032 2.481 2.528 0 1.58-.936 2.53-2.613 2.53m.07-4.304c-1.123 0-1.615.756-1.615 1.753 0 .977.478 1.795 1.566 1.795 1.164 0 1.636-.768 1.636-1.78s-.513-1.768-1.588-1.768M103.755 84.284c-.687-.035-1.171-.39-1.67-.985l-.728-.873a4.626 4.626 0 0 1-.318.014h-.486v1.76h-.942v-4.9h1.788c1.046 0 1.767.494 1.767 1.56 0 .575-.278 1.067-.86 1.345l.603.693c.298.34.65.547 1.046.65l-.2.736zm-2.51-4.241h-.692v1.71h.527c.72 0 1.115-.276 1.115-.865 0-.595-.263-.845-.95-.845zM106.482 84.2h-1.62v-4.9h1.58c1.648 0 2.805.727 2.805 2.432 0 1.7-1.046 2.467-2.765 2.467m-.062-4.156h-.63v3.415h.768c1.185 0 1.753-.568 1.753-1.657 0-1.184-.658-1.758-1.89-1.758M109.988 82.584h2.065v-.748h-2.065zM116.126 84.2l-2.1-3.735.035.616V84.2h-.935V79.3h1.17l2.155 3.84-.041-.617V79.3h.928v4.9zM118.819 84.2v-4.9h3.028v.735h-2.092v1.351h1.94v.707h-1.94v1.365h2.252v.741zM124.79 84.2h-1.62v-4.9h1.58c1.648 0 2.804.727 2.804 2.432 0 1.7-1.046 2.467-2.764 2.467m-.062-4.156h-.63v3.415h.768c1.184 0 1.753-.568 1.753-1.657 0-1.184-.659-1.758-1.89-1.758M128.71 84.2v-4.9h3.028v.735h-2.092v1.351h1.94v.707h-1.94v1.365h2.252v.741zM137.204 84.284c-.686-.035-1.17-.39-1.67-.985l-.728-.873a4.626 4.626 0 0 1-.318.014h-.485v1.76h-.943v-4.9h1.788c1.046 0 1.768.494 1.768 1.56 0 .575-.279 1.067-.86 1.345l.602.693c.298.34.652.547 1.047.65l-.2.736zm-2.508-4.241h-.693v1.71h.526c.721 0 1.115-.276 1.115-.865 0-.595-.263-.845-.948-.845zM138.311 84.2v-4.893h.935v4.137h2.127v.755zM145.558 84.2l-.527-1.602h-1.795l-.603 1.601h-.935l1.899-4.899h1.268l1.663 4.9h-.97zm-1.122-3.465l-.244-.867-.284.867-.415 1.172h1.31l-.367-1.172zM150.428 84.2l-2.1-3.735.035.616V84.2h-.936V79.3h1.172l2.154 3.84-.042-.617V79.3h.928v4.9zM154.743 84.2h-1.621v-4.9h1.578c1.65 0 2.806.727 2.806 2.432 0 1.7-1.046 2.467-2.763 2.467m-.063-4.156h-.63v3.415h.768c1.185 0 1.753-.568 1.753-1.657 0-1.184-.657-1.758-1.89-1.758M119.64 37.61v14.235l-14.951-13.719a3.606 3.606 0 0 0-2.436-.942v-.002H90.183c-4.953 0-8.694 2.886-8.694 7.184 0 3.216 2.035 5.412 5.216 7.083l4.525 2.365c.823.424 1.872 1.28 1.872 2.526 0 1.868-1.247 2.588-3.018 2.588-2.427 0-4.59-1.377-6.167-2.588l-3.181 4.327c3.28 2.526 6.496 2.987 9.053 2.987 6.101 0 9.12-3.28 9.12-7.644 0-3.674-2.855-5.774-5.906-7.28l-3.543-1.774c-1.343-.688-2.228-1.278-2.228-2.82 0-1.542 1.245-2.328 2.951-2.328h9.538v.001a3.616 3.616 0 0 1 3.615 3.558V63.39h5.806V48.96l16.27 14.748V37.61h-5.773zM149.95 37.612v-.003h-3.06v14.236l-16.303-14.654v26.2h5.805V48.957l16.27 14.75V40.312a2.711 2.711 0 0 0-2.713-2.7" fill="#8E969B"/><path d="M37.398 9.295a2.9 2.9 0 0 1-5.801 0 2.9 2.9 0 0 1 2.9-2.898c1.597 0 2.9 1.297 2.9 2.898M44.338 5.334a2.643 2.643 0 1 1-5.288 0 2.638 2.638 0 0 1 2.644-2.644 2.642 2.642 0 0 1 2.644 2.644M52.202 3.287a2.25 2.25 0 0 1-2.246 2.252 2.251 2.251 0 0 1-2.252-2.252 2.252 2.252 0 0 1 2.252-2.255c1.24 0 2.246 1.01 2.246 2.255M60.458 2.083A2.08 2.08 0 0 1 58.37 4.17a2.085 2.085 0 1 1 2.089-2.087" fill="#E63329"/><path d="M58.038 29.56a11.555 11.555 0 0 0-6.49 4.848 4.813 4.813 0 0 0-4.791-4.395 4.815 4.815 0 0 0-4.23 7.107 7.745 7.745 0 0 0-5.327.488 7.834 7.834 0 0 0-2.515-3.087 6.532 6.532 0 1 0-7.958-.731 7.801 7.801 0 0 0-3.61 10.514c-5.934 1.701-10.274 7.165-10.274 13.642 0 1.449.217 2.846.62 4.163a9.801 9.801 0 0 0-3.624-.689c-5.433 0-9.84 4.4-9.84 9.834a9.835 9.835 0 0 0 9.84 9.84A9.831 9.831 0 0 0 19.6 70.04a14.123 14.123 0 0 0 7.436 2.103c1.316 0 2.589-.18 3.797-.515a14.087 14.087 0 0 0 10.339 4.502c1.315 0 2.587-.18 3.794-.514a8.278 8.278 0 0 0 3.475 8.243 5.525 5.525 0 0 0 2.394 10.508 5.527 5.527 0 0 0 4.09-9.243c3.722-.817 6.506-4.135 6.506-8.094 0-4.43-3.47-8.05-7.84-8.285a14.09 14.09 0 0 0 1.322-3.447l.229.003c5.723 0 10.36-4.638 10.36-10.364 0-1.18-.198-2.316-.562-3.373 4.56-1.538 7.844-5.853 7.844-10.931 0-1.86-.441-3.617-1.223-5.172a10.766 10.766 0 0 1-3.611.618c-4.441 0-8.257-2.685-9.913-6.52M47.564 47.877a7.706 7.706 0 0 0 .72-3.263 7.723 7.723 0 0 0-1.816-4.985 4.793 4.793 0 0 0 3.468-1.192 11.526 11.526 0 0 0-.211 2.197c0 1.75.39 3.407 1.088 4.892a10.384 10.384 0 0 0-3.25 2.35M30.759 20.12a3.428 3.428 0 1 0-.003-6.856 3.428 3.428 0 0 0 .003 6.857" fill="#8E969B"/><path d="M61.555 16.595a10.746 10.746 0 0 0-1.774 1.642 9.953 9.953 0 0 0 2 1.948 9.95 9.95 0 0 0-.226-3.59" fill="#26247B"/><path d="M59.781 18.237a10.752 10.752 0 0 0-2.623 7.056c0 .695.067 1.373.193 2.03a9.923 9.923 0 0 0 4.43-7.138 9.926 9.926 0 0 1-2-1.948" fill="#2E3192"/><path d="M67.951 14.495c-2.394 0-4.606.78-6.396 2.1a9.95 9.95 0 0 1 .226 3.59 9.882 9.882 0 0 0 5.857 1.913 9.918 9.918 0 0 0 8.139-4.242 10.76 10.76 0 0 0-7.826-3.36" fill="#005FA8"/><path d="M57.785 10.993c-.046.389-.07.783-.07 1.185 0 2.28.77 4.383 2.066 6.059a10.82 10.82 0 0 1 1.773-1.641 9.932 9.932 0 0 0-3.77-5.603" fill="#D2232A"/><path d="M51.932 9.082c-5.485 0-9.926 4.444-9.926 9.927 0 5.48 4.441 9.926 9.926 9.926 2 0 3.861-.592 5.418-1.611a10.792 10.792 0 0 1-.192-2.031c0-2.7.988-5.165 2.622-7.056a9.877 9.877 0 0 1-2.066-6.06c0-.401.024-.795.07-1.184a9.864 9.864 0 0 0-5.852-1.911" fill="#E63329"/><path d="M67.638 2.247c-5.08 0-9.269 3.82-9.854 8.746a9.938 9.938 0 0 1 3.772 5.603 10.74 10.74 0 0 1 6.395-2.101c3.082 0 5.86 1.29 7.827 3.36a9.865 9.865 0 0 0 1.785-5.678c0-5.483-4.445-9.93-9.925-9.93" fill="#F39200"/><path d="M75.777 17.855a9.915 9.915 0 0 1-8.139 4.242 9.875 9.875 0 0 1-5.857-1.912 9.923 9.923 0 0 1-4.43 7.139c.952 4.983 5.338 8.756 10.6 8.756 5.962 0 10.792-4.834 10.792-10.787 0-2.885-1.128-5.502-2.966-7.438" fill="#0080C9"/></g></svg>